<?xml version="1.0" encoding="utf-8"?>
<!-- Generator: Adobe Illustrator 22.0.0, SVG Export Plug-In . SVG Version: 6.00 Build 0)  -->
<svg version="1.1" id="Layer_1" xmlns="http://www.w3.org/2000/svg" xmlns:xlink="http://www.w3.org/1999/xlink" x="0px" y="0px"
	 viewBox="0 0 512 512" style="enable-background:new 0 0 512 512;" xml:space="preserve">
<style type="text/css">
	.st0{clip-path:url(#SVGID_2_);fill:#FF6805;}
	.st1{clip-path:url(#SVGID_2_);fill:#FFFFFF;}
</style>
<rect width="512" height="512"/>
<g>
	<defs>
		<rect id="SVGID_1_" width="512" height="512"/>
	</defs>
	<clipPath id="SVGID_2_">
		<use xlink:href="#SVGID_1_"  style="overflow:visible;"/>
	</clipPath>
	<path class="st0" d="M200.6,169.7h-64.1v16h56.1c2.2,0,4.1,0.8,5.7,2.4c1.6,1.5,2.4,3.4,2.4,5.7v32.1c0,2.2-0.8,4.1-2.4,5.7
		c-1.6,1.5-3.4,2.3-5.7,2.3h-32.1c-2.2,0-4.1-0.8-5.7-2.3c-1.5-1.6-2.3-3.5-2.3-5.7c0-2.2,0.8-4.1,2.3-5.7c1.6-1.6,3.5-2.4,5.7-2.4
		h32.1v-16h-40c-4.4,0-8.2,1.6-11.3,4.7c-3.1,3.1-4.7,6.9-4.7,11.3v16c0,4.4,1.6,8.2,4.7,11.3c3.1,3.1,6.9,4.7,11.3,4.7h48.1
		c4.4,0,8.2-1.6,11.3-4.7c3.1-3.1,4.7-6.9,4.7-11.3v-48.1c0-4.4-1.6-8.2-4.7-11.3C208.8,171.2,205,169.7,200.6,169.7"/>
	<path class="st0" d="M304.8,169.7h-64.1c-4.4,0-8.2,1.6-11.3,4.7c-3.1,3.1-4.7,6.9-4.7,11.3v64.1h16v-56.1c0-2.2,0.8-4.1,2.3-5.7
		c1.6-1.6,3.5-2.4,5.7-2.4h16v64.1h16v-64.1h16.1c2.2,0,4.1,0.8,5.7,2.4c1.5,1.5,2.3,3.4,2.3,5.7v56.1h16v-64.1
		c0-4.4-1.6-8.2-4.7-11.3C313,171.2,309.2,169.7,304.8,169.7"/>
	<path class="st1" d="M139.8,266.9c-3.1,3.1-4.7,6.9-4.7,11.3v48.1c0,4.4,1.6,8.2,4.7,11.3c3.1,3.1,6.9,4.7,11.3,4.7h64.1v-16h-56.1
		c-2.2,0-4.1-0.8-5.7-2.3c-1.6-1.6-2.3-3.5-2.3-5.7v-32.1c0-2.2,0.8-4.1,2.3-5.7c1.6-1.6,3.5-2.4,5.7-2.4h56.1v-16h-64.1
		C146.7,262.2,142.9,263.8,139.8,266.9"/>
	<path class="st1" d="M287.3,262.2h-48.1c-4.4,0-8.2,1.6-11.3,4.7c-3.1,3.1-4.7,6.9-4.7,11.3v48.1c0,4.4,1.6,8.2,4.7,11.3
		c3.1,3.1,6.9,4.7,11.3,4.7h48.1c4.4,0,8.2-1.6,11.3-4.7c3.1-3.1,4.7-6.9,4.7-11.3v-48.1c0-4.4-1.6-8.2-4.7-11.3
		C295.5,263.8,291.8,262.2,287.3,262.2 M287.3,318.3c0,2.2-0.8,4.1-2.4,5.7c-1.6,1.6-3.4,2.3-5.7,2.3h-32.1c-2.2,0-4.1-0.8-5.7-2.3
		c-1.6-1.6-2.3-3.5-2.3-5.7v-32.1c0-2.2,0.8-4.1,2.3-5.7c1.6-1.6,3.5-2.4,5.7-2.4h32.1c2.2,0,4.1,0.8,5.7,2.4
		c1.6,1.5,2.4,3.4,2.4,5.7V318.3z"/>
	<path class="st1" d="M316.1,266.9c-3.1,3.1-4.7,6.9-4.7,11.3v64.1h16v-56.1c0-2.2,0.8-4.1,2.3-5.7c1.6-1.6,3.5-2.4,5.7-2.4h40.1
		v-16h-48.1C323,262.2,319.2,263.8,316.1,266.9"/>
	<path class="st1" d="M407.5,294.3v16h56.1v-32.1c0-4.4-1.6-8.2-4.7-11.3c-3.1-3.1-6.9-4.7-11.3-4.7h-48.1c-4.4,0-8.2,1.6-11.3,4.7
		c-3.1,3.1-4.7,6.9-4.7,11.3v48.1c0,4.4,1.6,8.2,4.7,11.3c3.1,3.1,6.9,4.7,11.3,4.7h64.1v-16h-56.1c-2.2,0-4.1-0.8-5.7-2.3
		c-1.5-1.6-2.3-3.5-2.3-5.7v-32.1c0-2.2,0.8-4.1,2.3-5.7c1.6-1.6,3.5-2.4,5.7-2.4h32.1c2.2,0,4.1,0.8,5.7,2.4
		c1.6,1.5,2.4,3.4,2.4,5.7v8H407.5z"/>
	<path class="st0" d="M104.4,249.8v-16H72.4c-2.2,0-4.1-0.8-5.7-2.3c-1.5-1.6-2.3-3.5-2.3-5.7v-32.1c0-2.2,0.8-4.1,2.3-5.7
		c1.6-1.6,3.5-2.4,5.7-2.4h32.1c0,0,0,0,0,0v-16H64.4c-4.4,0-8.2,1.6-11.3,4.7c-3.1,3.1-4.7,6.9-4.7,11.3v48.1
		c0,4.4,1.6,8.2,4.7,11.3c3.1,3.1,6.9,4.7,11.3,4.7H104.4z"/>
	<path class="st0" d="M112.5,169.7v24.1v3.1v61c0,2.2-0.8,4.1-2.4,5.7c-1.6,1.6-3.4,2.4-5.7,2.4h-16c-2.2,0-4.1-0.8-5.7-2.4
		c-1.5-1.6-2.3-3.5-2.3-5.7h-16v8c0,4.4,1.6,8.2,4.7,11.3c3.1,3.1,6.9,4.7,11.3,4.7h32.1c4.4,0,8.2-1.6,11.3-4.7
		c3.1-3.1,4.7-6.9,4.7-11.3v-80.1c0-4.4-1.6-8.2-4.7-11.3C120.7,171.2,116.9,169.7,112.5,169.7"/>
	<circle class="st1" cx="250.7" cy="290.2" r="6.9"/>
	<circle class="st1" cx="276" cy="290.2" r="6.9"/>
	<circle class="st1" cx="250.7" cy="314.4" r="6.9"/>
	<circle class="st1" cx="276" cy="314.4" r="6.9"/>
	<circle class="st1" cx="263.3" cy="302.5" r="6.9"/>
</g>
</svg>
